<?xml version="1.0" encoding="utf-8"?>
<!-- Generator: Adobe Illustrator 16.0.3, SVG Export Plug-In . SVG Version: 6.00 Build 0)  -->
<!DOCTYPE svg PUBLIC "-//W3C//DTD SVG 1.1//EN" "http://www.w3.org/Graphics/SVG/1.1/DTD/svg11.dtd">
<svg version="1.1" id="Layer_1" xmlns="http://www.w3.org/2000/svg" xmlns:xlink="http://www.w3.org/1999/xlink" x="0px" y="0px"
	 width="65px" height="65px" viewBox="0 0 65 65" enable-background="new 0 0 65 65" xml:space="preserve">
<g>
	<path d="M32.5,2.5c-16.543,0-30,13.457-30,30s13.457,30,30,30s30-13.457,30-30S49.043,2.5,32.5,2.5z"/>
</g>
<g>
	<path d="M32.5,2.5c-16.543,0-30,13.457-30,30s13.457,30,30,30s30-13.457,30-30S49.043,2.5,32.5,2.5z"/>
</g>
<g>
	<path fill="#FFFFFF" d="M47.5,38.133c0,3.313-1.487,4.796-4.801,4.796H22.301c-3.313,0-4.801-1.483-4.801-4.796V27.331
		c0-3.313,1.487-4.801,4.801-4.801h20.398c3.313,0,4.801,1.487,4.801,4.801V38.133z"/>
	<path fill="#FFFFFF" d="M40.084,23.123c0,1.86-1.507,3.363-3.362,3.363h-8.443c-1.855,0-3.362-1.503-3.362-3.363l0,0
		c0-1.855,1.507-3.358,3.362-3.358h8.443C38.577,19.765,40.084,21.268,40.084,23.123L40.084,23.123z"/>
	<circle fill="none" stroke="#000000" stroke-width="3" stroke-miterlimit="10" cx="32.5" cy="32.729" r="6.243"/>
	<circle cx="43.297" cy="26.76" r="1.5"/>
</g>
</svg>
