<?xml version="1.0" encoding="utf-8"?>
<!-- Generator: Adobe Illustrator 16.0.3, SVG Export Plug-In . SVG Version: 6.00 Build 0)  -->
<!DOCTYPE svg PUBLIC "-//W3C//DTD SVG 1.1//EN" "http://www.w3.org/Graphics/SVG/1.1/DTD/svg11.dtd">
<svg version="1.1" id="Layer_1" xmlns="http://www.w3.org/2000/svg" xmlns:xlink="http://www.w3.org/1999/xlink" x="0px" y="0px"
	 width="140px" height="80px" viewBox="0 0 140 80" enable-background="new 0 0 140 80" xml:space="preserve">
<g>
	<path d="M52.377,11.081c-0.397-0.479-0.958-0.793-1.665-0.959v-0.09c0.472-0.208,0.816-0.491,1.071-0.855
		c0.237-0.344,0.376-0.754,0.376-1.227c0-0.741-0.296-1.347-0.887-1.835c-0.59-0.487-1.357-0.723-2.302-0.723h-3.742v10.217h4.286
		c0.694,0,1.3-0.108,1.81-0.328c0.527-0.22,0.928-0.566,1.219-1.002c0.291-0.454,0.428-0.958,0.428-1.528
		C52.971,12.104,52.772,11.559,52.377,11.081 M47.2,6.923h1.43c0.442,0,0.814,0.132,1.095,0.355c0.28,0.225,0.413,0.553,0.413,0.947
		c0,0.436-0.16,0.79-0.461,1.028c-0.301,0.257-0.71,0.377-1.226,0.377H47.2V6.923z M50.424,13.7
		c-0.351,0.241-0.854,0.361-1.523,0.361h-1.7v-2.883h1.86c0.575,0,1.036,0.122,1.367,0.38c0.33,0.243,0.505,0.594,0.505,1.021
		C50.933,13.067,50.757,13.44,50.424,13.7"/>
	<rect x="68.107" y="5.393" width="1.974" height="10.217"/>
	<path d="M84.184,13.161c0.483,0.8,1.144,1.441,2.013,1.905c0.867,0.446,1.833,0.688,2.896,0.688c1.074,0,2.042-0.238,2.902-0.68
		c0.843-0.457,1.52-1.084,2.01-1.913c0.491-0.811,0.743-1.696,0.743-2.657c0-0.979-0.258-1.878-0.758-2.711
		c-0.502-0.815-1.177-1.456-2.03-1.884c-0.836-0.445-1.793-0.662-2.855-0.662c-1.097,0-2.074,0.241-2.93,0.688
		c-0.854,0.462-1.507,1.091-1.99,1.927c-0.485,0.817-0.735,1.698-0.735,2.643C83.448,11.477,83.698,12.361,84.184,13.161
		 M85.946,8.666c0.298-0.531,0.717-0.963,1.276-1.262c0.543-0.3,1.178-0.439,1.869-0.439s1.31,0.139,1.868,0.436
		c0.56,0.298,0.982,0.731,1.285,1.266c0.305,0.551,0.465,1.158,0.465,1.838c0,1.046-0.33,1.884-1.009,2.547
		c-0.678,0.664-1.543,0.985-2.598,0.985c-0.69,0-1.307-0.138-1.862-0.436c-0.555-0.296-0.978-0.728-1.282-1.261
		c-0.305-0.549-0.465-1.155-0.465-1.836C85.494,9.821,85.65,9.214,85.946,8.666"/>
	<polygon points="52.469,25.377 49.097,29.425 45.743,25.377 43.967,25.377 43.967,35.614 45.939,35.614 45.939,28.439 
		46.005,28.439 48.959,32.024 49.241,32.024 52.194,28.439 52.26,28.439 52.26,35.614 54.233,35.614 54.233,25.377 	"/>
	<polygon points="67.717,34.064 67.717,31.172 72.165,31.172 72.165,29.622 67.717,29.622 67.717,26.927 72.363,26.927 
		72.363,25.376 65.743,25.376 65.743,35.614 72.464,35.614 72.464,34.064 	"/>
	<polygon points="88.11,26.927 88.11,35.614 90.085,35.614 90.085,26.927 93.714,26.927 93.714,25.377 84.481,25.377 84.481,26.927 
			"/>
	<path d="M51.889,53.059c-0.378-0.729-0.691-1.236-0.95-1.537c-0.245-0.301-0.534-0.55-0.873-0.712
		c0.59-0.257,1.043-0.588,1.344-1.031c0.299-0.424,0.456-0.928,0.456-1.509c0-0.859-0.3-1.551-0.922-2.093
		c-0.601-0.524-1.385-0.797-2.348-0.797h-3.672v10.237h1.973v-4.316h0.711c0.313,0,0.596,0.064,0.852,0.231
		c0.231,0.163,0.494,0.418,0.763,0.8c0.252,0.381,0.68,1.123,1.231,2.209c0.266,0.492,0.47,0.857,0.628,1.076h2.195
		C52.975,55.145,52.508,54.287,51.889,53.059 M49.369,49.364c-0.295,0.245-0.698,0.389-1.21,0.389h-1.263v-2.847h1.22
		c0.55,0,0.962,0.112,1.255,0.337c0.293,0.244,0.448,0.583,0.448,1.055C49.819,48.756,49.664,49.098,49.369,49.364"/>
	<rect x="68.107" y="45.381" width="1.974" height="10.236"/>
	<path d="M85.119,53.252c0.486,0.804,1.156,1.417,2.012,1.857c0.855,0.423,1.803,0.634,2.881,0.634c0.751,0,1.405-0.078,1.95-0.216
		c0.563-0.137,1.169-0.393,1.836-0.747v-1.86c-0.777,0.433-1.411,0.725-1.935,0.874c-0.506,0.167-1.034,0.25-1.601,0.25
		c-0.742,0-1.385-0.154-1.972-0.448c-0.587-0.297-1.048-0.711-1.363-1.262c-0.335-0.532-0.485-1.14-0.485-1.823
		c0-0.671,0.152-1.294,0.487-1.829c0.319-0.555,0.781-0.972,1.367-1.271c0.587-0.297,1.229-0.456,1.966-0.456
		c0.582,0,1.145,0.083,1.672,0.251c0.544,0.148,1.127,0.416,1.75,0.784v-1.86c-0.652-0.33-1.25-0.55-1.795-0.677
		c-0.562-0.142-1.134-0.197-1.717-0.197c-1.093,0-2.079,0.218-2.956,0.67c-0.876,0.436-1.564,1.076-2.063,1.891
		c-0.516,0.813-0.756,1.747-0.756,2.768C84.397,51.547,84.634,52.433,85.119,53.252"/>
	<path d="M70.431,70.556c-0.349-0.258-0.793-0.379-1.366-0.379h-1.86v2.898h1.7c0.669,0,1.172-0.138,1.522-0.379
		c0.333-0.259,0.509-0.632,0.509-1.119C70.936,71.148,70.762,70.798,70.431,70.556"/>
	<path d="M99.09,59.504V40.996V40V20.992v-0.995V0.508H79.603h-1.014h-18.99h-0.995H39.098v19.489v0.995V40v0.996V60.5h19.506h0.497
		v18.992h79.997V59.504H99.09z M98.094,59.504H79.603V40.996h18.491V59.504z M78.589,59.504h-18.99V40.996h18.99V59.504z
		 M59.599,20.992h18.99V40h-18.99V20.992z M98.094,40H79.603V20.992h18.491V40z M98.094,19.997H79.603V1.504h18.491V19.997z
		 M78.589,19.997h-18.99V1.504h18.99V19.997z M40.094,1.504h18.51v18.493h-18.51V1.504z M40.094,20.992h18.51V40h-18.51V20.992z
		 M40.094,40.996h18.51v18.508h-18.51V40.996z M72.529,73.277c-0.292,0.436-0.691,0.782-1.202,1.002
		c-0.511,0.219-1.113,0.327-1.826,0.327h-4.289V64.388h3.762c0.946,0,1.696,0.235,2.284,0.723c0.591,0.489,0.886,1.096,0.886,1.838
		c0,0.473-0.119,0.88-0.356,1.243c-0.254,0.346-0.618,0.63-1.073,0.838v0.09c0.708,0.165,1.27,0.479,1.667,0.958
		c0.396,0.479,0.594,1.041,0.594,1.671C72.975,72.318,72.82,72.822,72.529,73.277 M90.085,74.606H88.11V64.389h1.975V74.606z
		 M112.398,74.606l-1.065-2.479h-4.555l-0.985,2.479h-2.068l4.214-10.219h2.027l4.513,10.219H112.398z M131.559,73.945
		c-0.642,0.53-1.454,0.806-2.453,0.806c-0.66,0-1.228-0.077-1.702-0.214c-0.475-0.153-0.995-0.392-1.581-0.749v-1.95
		c1.091,0.903,2.127,1.364,3.097,1.364c0.485,0,0.877-0.104,1.172-0.312c0.297-0.207,0.437-0.488,0.437-0.842
		c0-0.477-0.247-0.862-0.776-1.16c-0.425-0.229-0.982-0.513-1.663-0.833c-0.802-0.37-1.399-0.79-1.796-1.278
		c-0.398-0.488-0.597-1.06-0.597-1.71c0-0.864,0.317-1.548,0.964-2.054c0.63-0.507,1.48-0.769,2.535-0.769
		c0.992,0,1.954,0.256,2.87,0.754v1.757c-1.063-0.648-1.99-0.962-2.822-0.962c-0.497,0-0.887,0.096-1.169,0.289
		c-0.283,0.194-0.417,0.458-0.417,0.775c0,0.386,0.27,0.748,0.785,1.069c0.139,0.098,0.704,0.374,1.685,0.813
		c0.848,0.395,1.449,0.844,1.825,1.326c0.374,0.485,0.544,1.067,0.544,1.747C132.495,72.693,132.183,73.398,131.559,73.945"/>
	<polygon points="107.377,70.63 110.683,70.63 108.949,66.572 	"/>
	<path d="M69.682,68.251c0.3-0.24,0.459-0.594,0.459-1.028c0-0.396-0.148-0.723-0.413-0.947c-0.28-0.226-0.65-0.338-1.112-0.338
		h-1.41v2.689h1.249C68.97,68.627,69.378,68.508,69.682,68.251"/>
</g>
</svg>
