<?xml version="1.0" encoding="utf-8"?>
<!-- Generator: Adobe Illustrator 16.0.3, SVG Export Plug-In . SVG Version: 6.00 Build 0)  -->
<!DOCTYPE svg PUBLIC "-//W3C//DTD SVG 1.1//EN" "http://www.w3.org/Graphics/SVG/1.1/DTD/svg11.dtd">
<svg version="1.1" id="Layer_1" xmlns="http://www.w3.org/2000/svg" xmlns:xlink="http://www.w3.org/1999/xlink" x="0px" y="0px"
	 width="65px" height="65px" viewBox="0 0 65 65" enable-background="new 0 0 65 65" xml:space="preserve">
<g>
	<path d="M32.5,9C19.543,9,9,19.542,9,32.5S19.543,56,32.5,56C45.459,56,56,45.458,56,32.5S45.459,9,32.5,9z"/>
	<path d="M32.5,1.5c-17.094,0-31,13.906-31,31s13.906,31,31,31s31-13.906,31-31S49.594,1.5,32.5,1.5z M32.5,59
		C17.889,59,6,47.112,6,32.5S17.889,6,32.5,6C47.113,6,59,17.888,59,32.5S47.113,59,32.5,59z"/>
</g>
</svg>
